<svg width="192" height="45" viewBox="0 0 192 45" fill="none" xmlns="http://www.w3.org/2000/svg">
<path d="M65.0677 29.0313H81.1333C81.7564 29.0313 82.3016 28.5961 82.3802 27.9779C82.4544 27.3936 82.4915 26.7908 82.4915 26.1698C82.4915 18.9683 77.2789 13.5791 70.2321 13.5791C62.6062 13.5791 57.3936 19.0637 57.3936 26.1698C57.3936 33.2759 62.5097 38.7605 70.763 38.7605C74.7762 38.7605 78.0129 37.4818 80.3438 34.9883C80.8821 34.4124 80.6842 33.5069 79.9988 33.1174L76.406 31.0761C75.8716 30.7725 75.2051 30.8918 74.7001 31.2422C73.7195 31.9226 72.3744 32.3697 70.8596 32.3697C68.205 32.3697 65.9848 31.5113 65.0677 29.0313ZM64.9229 23.6898C65.5987 21.2575 67.4327 19.9221 70.1839 19.9221C72.3558 19.9221 74.5277 20.9236 75.3 23.6898H64.9229Z" fill="white"/>
<path d="M100.74 13.5791C97.5541 13.5791 95.1408 14.7237 93.8376 16.4883V15.5671C93.8376 14.8379 93.2465 14.2468 92.5173 14.2468H87.9182C87.189 14.2468 86.5978 14.8379 86.5978 15.5671V36.7725C86.5978 37.5017 87.189 38.0928 87.9182 38.0928H92.5173C93.2465 38.0928 93.8376 37.5017 93.8376 36.7725V25.0728C93.8376 21.6867 95.6717 20.1606 98.3263 20.1606C100.643 20.1606 102.525 21.5436 102.525 24.5005V36.7725C102.525 37.5017 103.117 38.0928 103.846 38.0928H108.445C109.174 38.0928 109.765 37.5017 109.765 36.7725V23.4513C109.765 17.0129 105.614 13.5791 100.74 13.5791Z" fill="white"/>
<path d="M114.737 36.7725C114.737 37.5017 115.328 38.0928 116.057 38.0928H120.656C121.386 38.0928 121.977 37.5017 121.977 36.7725V4.5979C121.977 3.86871 121.386 3.27759 120.656 3.27759H116.057C115.328 3.27759 114.737 3.86871 114.737 4.59791V36.7725Z" fill="white"/>
<path d="M127.203 36.7726C127.203 37.5018 127.795 38.0929 128.524 38.0929H133.123C133.852 38.0929 134.443 37.5018 134.443 36.7726V15.1917C134.443 14.4625 133.852 13.8713 133.123 13.8713H128.524C127.795 13.8713 127.203 14.4625 127.203 15.1917V36.7726Z" fill="white"/>
<path d="M127.203 9.54671C127.203 10.2759 127.795 10.867 128.524 10.867H133.123C133.852 10.867 134.443 10.2759 134.443 9.54671V4.48902C134.443 3.75983 133.852 3.1687 133.123 3.1687H128.524C127.795 3.1687 127.203 3.75983 127.203 4.48902V9.54671Z" fill="white"/>
<path d="M153.771 13.5791C150.585 13.5791 148.172 14.7237 146.869 16.4883V15.5671C146.869 14.8379 146.278 14.2468 145.548 14.2468H140.949C140.22 14.2468 139.629 14.8379 139.629 15.5671V36.7725C139.629 37.5017 140.22 38.0928 140.949 38.0928H145.548C146.278 38.0928 146.869 37.5017 146.869 36.7725V25.0729C146.869 21.6867 148.703 20.1606 151.357 20.1606C153.674 20.1606 155.557 21.5437 155.557 24.5006V36.7725C155.557 37.5017 156.148 38.0928 156.877 38.0928H161.476C162.205 38.0928 162.796 37.5017 162.796 36.7725V23.4514C162.796 17.0129 158.646 13.5791 153.771 13.5791Z" fill="white"/>
<path d="M174.577 29.0313H190.642C191.266 29.0313 191.811 28.5962 191.889 27.978C191.964 27.3936 192.001 26.7909 192.001 26.1698C192.001 18.9683 186.788 13.5791 179.741 13.5791C172.115 13.5791 166.903 19.0637 166.903 26.1698C166.903 33.2759 172.019 38.7605 180.272 38.7605C184.285 38.7605 187.522 37.4818 189.853 34.9883C190.391 34.4124 190.193 33.5069 189.508 33.1175L185.915 31.0762C185.381 30.7725 184.714 30.8919 184.209 31.2423C183.229 31.9226 181.884 32.3698 180.369 32.3698C177.714 32.3698 175.494 31.5113 174.577 29.0313ZM174.432 23.6898C175.108 21.2575 176.942 19.9221 179.693 19.9221C181.865 19.9221 184.037 20.9237 184.809 23.6898H174.432Z" fill="white"/>
<path fill-rule="evenodd" clip-rule="evenodd" d="M22.7726 43.9745C33.4755 43.7177 43.1744 35.516 43.7403 25.5367C43.7885 25.2198 43.7996 24.8973 43.7707 24.578C43.7707 19.8996 41.7826 16.9082 38.8794 14.0249C37.1841 12.3412 35.1056 11.0939 32.8223 10.3902L18.8126 6.07236C18.2289 5.89245 17.5938 6.06877 17.1864 6.52386L7.29609 17.5715C6.9381 17.9714 6.81012 18.5269 6.95706 19.0431L11.0922 33.5708C11.2463 34.1121 11.6793 34.529 12.2262 34.6623L26.8296 38.2223C27.3782 38.3561 28.0825 38.2223 28.3423 37.7713C28.3423 37.7713 31.5776 32.2611 32.0086 31.4135C32.4396 30.5659 32.5533 29.6772 31.8289 29.1117C31.0235 28.5216 30.1294 28.4732 29.04 28.7274C27.9505 28.9815 25.2181 29.707 20.7602 31.0685C16.3024 32.4299 13.1686 29.6391 14.1085 25.7619L16.4246 15.8765C17.2278 12.5628 21.1852 11.1848 23.8729 13.2829L37.1868 24.2691C39.3601 25.9656 39.6095 29.1612 37.7258 31.1744L30.6267 39.9088C29.4692 41.1459 27.7346 41.663 26.0886 41.2618L11.4852 37.7018C9.84465 37.3018 8.54546 36.0513 8.08318 34.4272L3.94808 19.8996C3.50729 18.351 3.89123 16.6845 4.96519 15.4848L14.8555 4.43715C16.0777 3.07188 17.9829 2.54293 19.734 3.08264L33.7437 7.40048C36.5108 8.25329 39.0296 9.76473 41.084 11.8051C41.1933 11.9137 41.2932 11.7527 41.2178 11.6183C37.4051 4.82693 30.0585 0.314924 21.7299 0.514757C9.7288 0.802705 0.233428 10.7649 0.521376 22.766C0.809324 34.7671 10.7715 44.2625 22.7726 43.9745Z" fill="white"/>
</svg>
